<svg width="3136" height="2638" viewBox="0 0 3136 2638" fill="none" xmlns="http://www.w3.org/2000/svg">
<g clip-path="url(#clip0_980_445)">
<path d="M1216.01 617.529C1457.39 526.268 1694.58 527.667 1925.82 614.848C1970.46 531.513 2011.14 449.111 2057.64 370.088C2125.71 254.584 2209.28 150.387 2322.1 75.793C2435.74 0.733182 2558.01 -29.4539 2687.85 37.9134C2787.85 89.6627 2839.14 189.548 2825.85 303.77C2814.19 404.238 2741.12 489.438 2639.13 511.816C2616.4 516.828 2590.29 515.545 2566.17 510.184C2520.6 499.927 2487.96 454.355 2497.28 408.55C2504.28 374.4 2529.57 356.451 2574.91 353.771C2619.67 351.09 2659.18 323.35 2668.85 287.918C2678.64 252.02 2661.51 214.257 2623.4 186.401C2567.57 145.724 2510.11 154.349 2454.16 183.604C2377.47 223.582 2316.51 283.14 2262.66 349.575C2189 440.486 2132.35 541.187 2094.36 652.262C2084.45 681.167 2089.81 698.649 2115.22 717.764C2275.02 838.629 2381.2 994.926 2418.03 1194C2448.1 1356.01 2424.67 1510.67 2347.98 1657.06C2265.92 1813.71 2145.99 1931.89 1989.58 2013.59C1978.39 2019.42 1967.66 2026.3 1961.02 2030.14C2123.85 2155.21 2160.09 2283.3 2190.86 2265.11C2245.99 2236.44 2260.8 2226.3 2301.94 2211.97C2594.37 2109.98 2860 2160.22 3096.72 2359.17C3113.85 2373.62 3127.84 2396.82 3133.55 2418.61C3142.53 2452.65 3127.96 2482.14 3097.19 2501.37C3064.44 2521.76 3032.85 2515.7 3003.59 2494.02C2966.18 2466.17 2931.91 2433.3 2892.17 2409.52C2679.11 2282.71 2465 2290.17 2252.52 2411.85C2203.69 2439.83 2157.53 2472.11 2109.51 2501.6C1927.1 2613.61 1725.93 2643.68 1516.37 2636.45C1391.07 2632.14 1267.87 2613.49 1153.53 2560.58C1082.32 2527.59 1013.67 2487.5 947.584 2444.84C831.729 2370.01 709.93 2316.51 569.366 2315.81C412.834 2315 276.816 2368.73 158.397 2469.66C144.76 2481.32 131.007 2493.21 115.505 2501.95C83.9189 2519.9 53.3818 2516.29 26.5744 2491.11C-0.582696 2465.47 -7.80904 2427.82 9.09128 2396.35C15.2686 2384.93 23.1943 2373.86 32.6352 2365C155.483 2249.61 300.709 2184.69 468.547 2166.51C637.667 2148.21 797.579 2174.09 947.234 2256.02C962.269 2264.3 972.992 2265.93 983.016 2249.38C1032.55 2166.86 1177.43 2045.18 1177.43 2045.18C1177.43 2045.18 1186.05 2040.52 1196.66 2034.81C1165.77 2018.61 1142.35 2008 1120.67 1994.6C909.354 1864.76 765.06 1683.98 724.732 1436.08C681.607 1170.8 777.531 947.722 974.507 764.152C996.07 744.105 1019.61 726.505 1043.39 709.139C1060.06 697.018 1064.49 685.246 1058.31 667.064C993.156 474.869 887.558 311.812 716.34 197.124C672.4 167.636 622.981 151.669 569.949 164.956C546.521 170.783 522.978 182.905 503.863 197.707C472.393 222.183 464.584 258.198 477.288 294.912C490.226 332.442 521.695 350.274 560.158 353.538C621.116 358.782 648.273 381.394 647.69 429.297C647.224 475.568 607.596 513.448 555.962 517.061C441.856 524.986 325.419 416.01 317.61 294.096C307.469 131.855 421.109 8.65875 584.168 1.4325C714.592 -4.39513 814.246 57.2611 903.526 141.295C1035.7 265.657 1126.14 418.807 1199.92 582.796C1204.7 593.519 1209.83 604.009 1216.12 617.412L1216.01 617.529ZM873.688 1298.66C874.97 1484.21 937.094 1618.13 1043.39 1732.7C1164.49 1863.13 1315.66 1930.96 1492.47 1947.28C1759.15 1971.87 1981.3 1890.51 2147.86 1676.29C2241.8 1555.54 2290.52 1417.89 2272.22 1264.16C2246.69 1049.59 2122.45 898.77 1939.57 797.719C1703.32 667.064 1458.79 668.929 1220.2 790.143C1004.23 899.819 885.46 1079.43 873.688 1298.78V1298.66ZM2037.36 2359.17C2037.6 2320.24 1907.75 2185.51 1804.37 2145.07C1697.84 2100.08 1586.18 2090.99 1473.36 2108.12C1324.99 2130.61 1200.86 2194.13 1123.93 2330.97C1111.57 2353 1113.21 2365.47 1135.35 2376.07C1143.98 2380.15 1152.14 2385.28 1160.64 2389.59C1349.81 2484.58 1549.58 2497.29 1754.95 2465.58C1855.42 2450.08 2031.3 2407.66 2037.36 2359.06V2359.17Z" fill="#2A3453"/>
<path d="M1586.76 1761.61C1623.83 1760.44 1677.91 1742.73 1724.18 1706.48C1762.53 1676.52 1792.72 1639.34 1799.59 1588.76C1804.6 1551.46 1788.05 1521.04 1757.63 1509.85C1723.02 1497.15 1697.72 1512.65 1676.98 1539.23C1670.33 1547.73 1664.39 1556.71 1658.1 1565.33C1621.73 1614.64 1526.27 1630.37 1483.38 1561.37C1476.5 1550.3 1468.23 1539.81 1459.02 1530.48C1436.41 1507.41 1409.49 1496.68 1378.25 1511.02C1351.21 1523.49 1336.99 1560.56 1344.45 1594.01C1364.85 1685.27 1464.38 1760.91 1586.76 1761.61ZM1203.54 1153.09C1140.01 1153.2 1087.21 1207.63 1088.96 1270.92C1090.59 1329.55 1144.21 1382.11 1203.19 1382.7C1265.78 1383.4 1316.59 1332 1316.36 1268.36C1316.13 1205.42 1264.73 1152.97 1203.42 1153.09H1203.54ZM1942.6 1381.88C2003.91 1381.53 2056.01 1330.36 2055.43 1271.04C2054.85 1208.1 2000.18 1152.39 1939.81 1153.32C1878.27 1154.25 1828.15 1206.47 1828.15 1269.76C1828.15 1332.23 1879.2 1382.23 1942.6 1381.88Z" fill="white"/>
<path d="M1586.77 1761.61C1464.38 1760.91 1364.73 1685.27 1344.45 1594.01C1336.99 1560.55 1351.09 1523.49 1378.25 1511.02C1409.49 1496.68 1436.41 1507.29 1459.02 1530.48C1468.11 1539.81 1476.51 1550.3 1483.38 1561.37C1526.27 1630.37 1621.73 1614.64 1658.1 1565.33C1664.51 1556.71 1670.45 1547.73 1676.98 1539.23C1697.72 1512.65 1723.02 1497.27 1757.63 1509.85C1788.05 1520.93 1804.6 1551.46 1799.59 1588.76C1792.83 1639.34 1762.53 1676.52 1724.18 1706.48C1677.79 1742.73 1623.83 1760.33 1586.77 1761.61Z" fill="#2A3453"/>
<path d="M1203.54 1153.09C1264.84 1152.97 1316.24 1205.42 1316.48 1268.36C1316.71 1332 1265.89 1383.4 1203.3 1382.7C1144.33 1382.11 1090.71 1329.66 1089.08 1270.92C1087.33 1207.63 1140.13 1153.2 1203.65 1153.09H1203.54Z" fill="#2A3453"/>
<path d="M1942.6 1381.76C1879.2 1382.11 1828.15 1332.11 1828.15 1269.64C1828.15 1206.35 1878.27 1154.14 1939.81 1153.2C2000.07 1152.39 2054.73 1207.98 2055.43 1270.92C2056.01 1330.25 2003.91 1381.41 1942.6 1381.76Z" fill="#2A3453"/>
</g>
<defs>
<clipPath id="clip0_980_445">
<rect width="3136" height="2637" fill="white" transform="translate(0 0.5)"/>
</clipPath>
</defs>
</svg>
