<svg width="3801" height="1078" viewBox="0 0 3801 1078" fill="none" xmlns="http://www.w3.org/2000/svg">
<path d="M503.944 296.418C587.378 264.829 669.335 265.322 749.255 295.503C764.648 266.658 778.776 238.165 794.803 210.798C818.349 170.837 847.238 134.816 886.175 108.996C925.468 83.0353 967.714 72.6229 1012.56 95.91C1047.07 113.85 1064.86 148.394 1060.29 187.862C1056.28 222.617 1030.98 252.095 995.762 259.834C987.889 261.522 978.889 261.171 970.524 259.272C954.778 255.754 943.532 239.924 946.699 224.094C949.087 212.275 957.873 206.084 973.476 205.099C988.945 204.184 1002.58 194.616 1005.95 182.304C1009.33 169.852 1003.42 156.836 990.278 147.198C971.016 133.127 951.127 136.152 931.794 146.213C905.294 160.073 884.214 180.686 865.583 203.621C840.139 235.07 820.528 269.895 807.384 308.308C803.94 318.298 805.837 324.349 814.553 330.962C869.801 372.752 906.421 426.854 919.214 495.66C929.619 551.732 921.46 605.2 895.032 655.855C866.708 710.028 825.237 750.903 771.185 779.185C767.319 781.226 763.594 783.618 761.345 784.884C817.646 828.152 830.158 872.474 840.772 866.212C859.82 856.293 864.951 852.775 879.151 847.85C980.222 812.603 1072.02 829.91 1153.84 898.79C1159.75 903.784 1164.6 911.802 1166.56 919.328C1169.66 931.078 1164.67 941.28 1153.98 947.965C1142.67 954.999 1131.77 952.959 1121.65 945.432C1108.71 935.794 1096.9 924.394 1083.13 916.232C1009.47 872.334 935.524 874.937 862.069 917.01C845.2 926.648 829.244 937.835 812.656 948.036C749.606 986.795 680.09 997.211 607.691 994.679C564.393 993.202 521.798 986.732 482.295 968.44C457.693 957.039 433.936 943.178 411.091 928.403C371.026 902.513 328.993 884.015 280.353 883.801C226.229 883.523 179.276 902.093 138.297 937.057C133.588 941.066 128.808 945.218 123.466 948.243C112.571 954.435 101.958 953.236 92.7497 944.448C83.3309 935.58 80.8708 922.568 86.7048 911.659C88.8135 907.721 91.6251 903.855 94.8584 900.83C137.313 860.866 187.5 838.423 245.489 832.162C303.97 825.829 359.218 834.765 410.951 863.117C416.153 865.931 419.878 866.564 423.322 860.796C440.472 832.231 490.518 790.16 490.518 790.16C490.518 790.16 493.471 788.542 497.126 786.572C486.441 780.944 478.359 777.286 470.837 772.642C397.806 727.687 347.972 665.212 333.983 579.451C319.082 487.71 352.259 410.532 420.299 347.002C427.75 340.037 435.903 333.987 444.127 328.007C449.891 323.786 451.437 319.776 449.259 313.443C426.766 246.96 390.215 190.606 331.031 150.856C315.849 140.655 298.768 135.167 280.423 139.74C272.34 141.781 264.186 145.932 257.579 151.067C246.684 159.58 244.013 171.963 248.371 184.696C252.869 197.712 263.694 203.833 276.979 204.958C298.066 206.788 307.414 214.597 307.274 231.2C307.133 247.241 293.426 260.327 275.573 261.593C236.141 264.337 195.864 226.627 193.194 184.485C189.96 128.413 229.253 85.7791 285.554 83.3167C330.61 81.3468 365.052 102.594 395.909 131.72C441.597 174.776 472.806 227.753 498.321 284.458C500.008 288.187 501.765 291.845 503.944 296.418ZM385.646 532.032C386.068 596.196 407.506 642.558 444.338 682.168C486.16 727.264 538.456 750.762 599.537 756.391C691.687 764.904 768.444 736.762 826.01 662.679C858.484 620.889 875.283 573.26 868.958 520.073C860.101 445.849 817.225 393.647 754.034 358.681C672.358 313.514 587.87 314.147 505.42 356.078C430.772 393.999 389.723 456.121 385.646 532.032ZM787.844 898.853C787.844 885.349 743.069 838.775 707.362 824.774C670.53 809.226 631.941 806.06 592.93 811.97C541.689 819.779 498.742 841.73 472.173 889.08C467.885 896.678 468.518 901.037 476.109 904.697C479.061 906.102 481.943 907.864 484.895 909.341C550.264 942.193 619.289 946.623 690.282 935.651C725.005 930.308 785.805 915.597 787.914 898.79L787.844 898.853Z" fill="#5C525E"/>
<path d="M632.082 692.157C589.768 691.946 555.396 665.705 548.367 634.186C545.766 622.578 550.687 609.773 560.035 605.482C570.86 600.487 580.138 604.216 587.94 612.236C591.103 615.472 593.985 619.06 596.375 622.93C611.206 646.78 644.172 641.362 656.754 624.337C658.933 621.312 661.042 618.216 663.291 615.331C670.46 606.115 679.247 600.769 691.196 605.2C701.669 609.07 707.432 619.623 705.675 632.498C703.356 649.945 692.882 662.82 679.598 673.233C663.572 685.755 644.945 691.876 632.082 692.299V692.157Z" fill="#5C525E"/>
<path d="M499.586 481.659C520.744 481.659 538.527 499.74 538.597 521.55C538.667 543.57 521.095 561.3 499.446 561.089C479.062 560.878 460.505 542.726 459.943 522.464C459.31 500.585 477.586 481.73 499.517 481.73L499.586 481.659Z" fill="#5C525E"/>
<path d="M755.018 560.807C733.087 560.948 715.445 543.641 715.445 521.972C715.445 500.093 732.806 482.011 754.034 481.73C774.84 481.448 793.748 500.725 793.959 522.465C794.169 543.008 776.175 560.667 754.948 560.807H755.018Z" fill="#5C525E"/>
<path d="M1685.22 207.107C1685.22 214.846 1682.06 221.881 1675.74 228.213C1670.11 233.841 1663.78 236.655 1656.75 236.655C1649.02 236.655 1639.18 233.137 1627.24 226.102C1613.88 217.659 1600.52 211.68 1587.17 208.162C1573.82 204.644 1558.35 202.885 1540.78 202.885C1484.55 202.885 1456.43 232.434 1456.43 291.531V406.559H1611.42C1635.32 406.559 1647.27 416.057 1647.27 435.053C1647.27 454.048 1635.32 462.49 1611.42 462.49H1456.43V896.223C1456.43 921.549 1445.89 934.212 1424.8 934.212C1414.26 934.212 1405.96 930.838 1399.99 924.224C1394.01 917.54 1391.06 908.251 1391.06 896.223V462.49H1335.18C1310.58 462.49 1298.28 453.344 1298.28 435.053C1298.28 416.761 1310.58 406.559 1335.18 406.559H1391.06V295.752C1391.06 250.022 1404.55 213.298 1431.62 185.507C1458.68 157.718 1494.39 143.788 1538.67 143.788C1594.2 143.788 1639.54 158.21 1674.68 187.056C1681.7 191.98 1685.22 198.664 1685.22 207.107Z" fill="#5C525E"/>
<path d="M1780.32 896.787C1743.91 871.81 1716.71 838.744 1698.79 797.585C1680.86 756.428 1671.94 712.316 1671.94 665.109C1671.94 617.902 1680.86 573.79 1698.79 532.633C1716.71 491.476 1743.85 458.409 1780.32 433.434C1816.74 408.459 1860.94 395.936 1912.89 395.936C1964.83 395.936 2009.05 408.459 2045.46 433.434C2081.86 458.409 2109.07 491.476 2126.99 532.633C2144.92 573.79 2153.84 617.972 2153.84 665.109C2153.84 712.246 2144.92 756.428 2126.99 797.585C2109.07 838.744 2081.86 871.81 2045.46 896.787C2009.05 921.755 1964.83 934.283 1912.89 934.283C1860.94 934.283 1816.74 921.827 1780.32 896.787ZM2036.53 816.443C2067.67 780.419 2083.28 730.186 2083.28 665.671C2083.28 601.157 2067.67 550.714 2036.53 514.341C2005.4 477.968 1964.21 459.817 1912.96 459.817C1861.72 459.817 1820.53 478.038 1789.4 514.341C1758.25 550.714 1742.72 601.157 1742.72 665.671C1742.72 730.186 1758.25 780.419 1789.4 816.443C1820.53 852.462 1861.72 870.468 1912.96 870.468C1964.21 870.468 2005.4 852.462 2036.53 816.443Z" fill="#5C525E"/>
<path d="M2293.08 924.224C2287.46 917.539 2284.65 908.25 2284.65 896.223V433.997C2284.65 408.67 2295.54 396.006 2317.34 396.006C2327.88 396.006 2335.96 399.382 2341.58 405.996C2347.21 412.68 2350.02 422.037 2350.02 433.997V502.592C2374.62 470.229 2403.58 446.168 2437.04 430.339C2470.43 414.509 2509.23 406.559 2553.58 406.559H2579.94C2591.89 406.559 2601.16 409.232 2607.85 414.438C2614.52 419.714 2617.82 426.961 2617.82 436.107C2617.82 455.102 2605.17 464.601 2579.87 464.601H2551.4C2488.85 464.601 2439.64 482.049 2403.79 516.803C2367.94 551.628 2350.02 598.976 2350.02 658.777V896.223C2350.02 908.179 2347.21 917.539 2341.58 924.224C2335.96 930.909 2327.88 934.211 2317.34 934.211C2306.79 934.211 2298.71 930.837 2293.08 924.224Z" fill="#5C525E"/>
<path d="M2745.4 924.224C2739.77 917.539 2736.97 908.25 2736.97 896.223V433.997C2736.97 408.67 2747.86 396.006 2769.65 396.006C2780.2 396.006 2788.27 399.382 2793.9 405.996C2799.52 412.68 2802.33 422.037 2802.33 433.997V501.536C2822.01 468.47 2847.18 442.65 2877.75 424.006C2908.33 405.363 2940.81 396.006 2975.31 396.006C3009.83 396.006 3038.58 405.152 3063.88 423.443C3089.19 441.735 3108.16 467.414 3120.81 500.481C3145.42 466.711 3172.62 440.821 3202.49 422.951C3232.36 405.011 3263.43 396.006 3295.84 396.006C3406.2 396.006 3461.37 462.138 3461.37 594.403V896.223C3461.37 908.179 3458.56 917.539 3452.93 924.224C3447.31 930.909 3439.23 934.211 3428.69 934.211C3406.89 934.211 3396 921.549 3396 896.223V593.348C3396 544.803 3388.12 509.486 3372.24 487.325C3356.35 465.164 3329.5 454.047 3291.62 454.047C3258.58 454.047 3228.85 464.038 3202.49 484.088C3176.13 504.139 3155.19 532.844 3139.79 570.131V896.223C3139.79 908.179 3136.98 917.539 3131.36 924.224C3125.74 930.909 3117.66 934.211 3107.11 934.211C3085.32 934.211 3074.43 921.549 3074.43 896.223V608.122C3074.43 558.171 3065.43 520.039 3047.51 493.656C3029.58 467.274 3003.78 454.118 2970.04 454.118C2938.42 454.118 2909.74 462.772 2884.08 479.938C2858.43 497.174 2838.39 520.953 2823.98 551.136C2809.58 581.388 2802.33 615.509 2802.33 653.5V896.223C2802.33 908.179 2799.52 917.539 2793.9 924.224C2788.27 930.909 2780.2 934.211 2769.65 934.211C2759.11 934.211 2751.02 930.837 2745.4 924.224Z" fill="#5C525E"/>
<path d="M3630 264.655C3620.16 255.158 3615.24 243.76 3615.24 230.323C3615.24 216.885 3620.29 205.347 3630.49 195.498C3640.68 185.648 3652.42 180.724 3665.77 180.724C3679.12 180.724 3691.08 185.859 3701.62 196.06C3712.16 206.261 3717.43 217.659 3717.43 230.393C3717.43 243.127 3712.16 254.313 3701.62 264.163C3691.08 274.012 3679.12 278.937 3665.77 278.937C3651.71 278.937 3639.77 274.153 3629.93 264.726L3630 264.655ZM3641.59 924.224C3635.97 917.539 3633.16 908.25 3633.16 896.223V433.997C3633.16 408.67 3644.05 396.006 3665.84 396.006C3676.39 396.006 3684.47 399.382 3690.09 405.996C3695.71 412.68 3698.53 422.037 3698.53 433.997V896.223C3698.53 908.179 3695.71 917.539 3690.09 924.224C3684.47 930.909 3676.39 934.211 3665.84 934.211C3655.3 934.211 3647.21 930.837 3641.59 924.224Z" fill="#5C525E"/>
</svg>
