<svg width="4410" height="1150" viewBox="0 0 4410 1150" fill="none" xmlns="http://www.w3.org/2000/svg">
<g clip-path="url(#clip0_980_431)">
<path d="M529.529 269.362C634.656 229.573 737.922 230.194 838.621 268.21C858.016 231.877 875.818 195.988 896.011 161.516C925.68 111.182 962.08 65.8103 1011.14 33.2881C1060.65 0.588641 1113.88 -12.5266 1170.38 16.8054C1213.87 39.4026 1236.28 82.9133 1230.52 132.627C1225.47 176.404 1193.59 213.534 1149.22 223.282C1139.3 225.408 1127.96 224.965 1117.42 222.573C1097.58 218.142 1083.41 198.203 1087.4 178.264C1090.41 163.377 1101.48 155.579 1121.14 154.338C1140.63 153.186 1157.81 141.134 1162.06 125.626C1166.31 109.941 1158.87 93.5472 1142.31 81.4068C1118.04 63.6835 1092.98 67.494 1068.62 80.1661C1035.23 97.6236 1008.67 123.588 985.195 152.477C953.135 192.089 928.425 235.954 911.864 284.338C907.524 296.922 909.915 304.543 920.897 312.873C990.509 365.511 1036.65 433.657 1052.77 520.324C1065.88 590.951 1055.6 658.299 1022.3 722.103C986.612 790.338 934.359 841.824 866.253 877.448C861.382 880.018 856.688 883.031 853.854 884.626C924.794 939.125 940.559 994.953 953.932 987.066C977.933 974.571 984.398 970.14 1002.29 963.937C1129.64 919.54 1245.31 941.34 1348.4 1028.1C1355.84 1034.39 1361.95 1044.49 1364.43 1053.97C1368.33 1068.77 1362.04 1081.62 1348.58 1090.04C1334.32 1098.9 1320.59 1096.33 1307.84 1086.85C1291.54 1074.71 1276.66 1060.35 1259.3 1050.07C1166.49 994.776 1073.32 998.055 980.767 1051.05C959.512 1063.19 939.407 1077.28 918.506 1090.13C839.063 1138.95 751.473 1152.07 660.251 1148.88C605.695 1147.02 552.025 1138.87 502.251 1115.83C471.253 1101.47 441.319 1084.01 412.535 1065.4C362.053 1032.79 309.091 1009.49 247.804 1009.22C179.609 1008.87 120.448 1032.26 68.8145 1076.3C62.8807 1081.35 56.8583 1086.58 50.1274 1090.39C36.3998 1098.19 23.0265 1096.68 11.4245 1085.61C-0.443197 1074.44 -3.54297 1058.05 3.80792 1044.31C6.46486 1039.35 10.0075 1034.48 14.0814 1030.67C67.5746 980.331 130.81 952.063 203.876 944.176C277.562 936.2 347.174 947.455 412.358 983.167C418.912 986.712 423.606 987.509 427.945 980.243C449.555 944.264 512.613 891.272 512.613 891.272C512.613 891.272 516.333 889.234 520.938 886.752C507.476 879.663 497.292 875.055 487.815 869.206C395.796 812.581 333.004 733.889 315.379 625.866C296.603 510.31 338.406 413.098 424.137 333.077C433.525 324.304 443.798 316.683 454.16 309.151C461.423 303.834 463.371 298.783 460.626 290.807C432.285 207.065 386.231 136.083 311.659 86.0148C292.529 73.1655 271.008 66.2534 247.893 72.0134C237.708 74.5833 227.434 79.8117 219.109 86.2807C205.382 97.0033 202.016 112.6 207.507 128.639C213.175 145.033 226.814 152.743 243.553 154.161C270.123 156.465 281.902 166.301 281.725 187.215C281.547 207.419 264.277 223.902 241.782 225.497C192.097 228.953 141.349 181.455 137.984 128.373C133.91 57.7462 183.418 4.04468 254.358 0.943106C311.128 -1.53815 354.525 25.224 393.405 61.9112C450.972 116.144 490.295 182.873 522.444 254.297C524.57 258.994 526.784 263.602 529.529 269.362ZM380.474 566.138C381.006 646.957 408.018 705.355 454.426 755.246C507.122 812.049 573.014 841.647 649.977 848.736C766.086 859.459 862.799 824.012 935.333 730.699C976.25 678.061 997.417 618.068 989.447 551.074C978.287 457.583 924.263 391.83 844.643 347.788C741.731 290.896 635.276 291.693 531.389 344.509C437.333 392.273 385.611 470.521 380.474 566.138ZM887.243 1028.18C887.243 1011.17 830.827 952.506 785.836 934.871C739.428 915.287 690.806 911.299 641.652 918.743C577.088 928.579 522.975 956.228 489.498 1015.87C484.095 1025.44 484.892 1030.93 494.457 1035.54C498.177 1037.31 501.808 1039.53 505.528 1041.39C587.893 1082.77 674.864 1088.35 764.315 1074.53C808.066 1067.8 884.674 1049.27 887.331 1028.1L887.243 1028.18Z" fill="#5C525E"/>
<path d="M690.982 767.829C707.101 767.297 730.66 759.588 750.852 743.814C767.503 730.788 780.699 714.571 783.71 692.505C785.924 676.288 778.662 662.996 765.466 658.122C750.41 652.628 739.339 659.363 730.305 670.883C727.471 674.605 724.814 678.504 722.069 682.226C706.216 703.671 664.679 710.583 645.992 680.453C642.98 675.668 639.349 671.06 635.364 666.984C625.533 656.881 613.754 652.273 600.203 658.477C588.424 663.882 582.225 680.01 585.502 694.632C594.358 734.421 637.755 767.386 690.982 767.652V767.829ZM524.126 502.689C496.494 502.689 473.467 526.438 474.264 553.998C474.973 579.608 498.354 602.382 524.038 602.648C551.316 602.914 573.457 580.583 573.368 552.846C573.28 525.375 550.873 502.512 524.215 502.6L524.126 502.689ZM845.971 602.382C872.718 602.205 895.39 579.962 895.125 554.086C894.859 526.704 871.035 502.423 844.82 502.778C818.073 503.132 796.198 525.906 796.198 553.466C796.198 580.671 818.427 602.471 846.06 602.382H845.971Z" fill="white"/>
<path d="M690.983 767.829C637.667 767.563 594.358 734.51 585.502 694.809C582.225 680.188 588.425 664.059 600.204 658.654C613.843 652.362 625.533 657.059 635.364 667.161C639.349 671.237 642.981 675.757 645.992 680.631C664.679 710.672 706.216 703.848 722.069 682.403C724.815 678.593 727.472 674.693 730.306 671.06C739.339 659.451 750.41 652.717 765.466 658.299C778.662 663.173 785.924 676.466 783.71 692.683C780.788 714.659 767.591 730.876 750.853 743.992C730.66 759.765 707.19 767.475 690.983 768.007V767.829Z" fill="#5C525E"/>
<path d="M524.038 502.689C550.696 502.689 573.103 525.463 573.192 552.934C573.28 580.671 551.139 603.003 523.861 602.737C498.177 602.471 474.796 579.608 474.087 554.086C473.29 526.527 496.317 502.778 523.95 502.778L524.038 502.689Z" fill="#5C525E"/>
<path d="M845.883 602.382C818.25 602.56 796.021 580.76 796.021 553.466C796.021 525.907 817.896 503.132 844.643 502.778C870.858 502.423 894.682 526.704 894.948 554.087C895.213 579.963 872.541 602.205 845.794 602.382H845.883Z" fill="#5C525E"/>
<path d="M1849.32 233.65C1849.32 243.398 1845.34 252.259 1837.37 260.235C1830.28 267.324 1822.31 270.869 1813.45 270.869C1803.71 270.869 1791.31 266.438 1776.26 257.576C1759.43 246.942 1742.6 239.41 1725.78 234.979C1708.95 230.548 1689.46 228.333 1667.32 228.333C1596.47 228.333 1561.04 265.552 1561.04 339.989V484.877H1756.33C1786.44 484.877 1801.5 496.84 1801.5 520.767C1801.5 544.693 1786.44 555.327 1756.33 555.327H1561.04V1101.65C1561.04 1133.55 1547.76 1149.5 1521.19 1149.5C1507.91 1149.5 1497.45 1145.25 1489.93 1136.92C1482.4 1128.5 1478.68 1116.8 1478.68 1101.65V555.327H1408.27C1377.27 555.327 1361.77 543.807 1361.77 520.767C1361.77 497.727 1377.27 484.877 1408.27 484.877H1478.68V345.306C1478.68 287.706 1495.68 241.448 1529.78 206.444C1563.88 171.441 1608.87 153.895 1664.67 153.895C1734.63 153.895 1791.76 172.061 1836.04 208.394C1844.89 214.597 1849.32 223.016 1849.32 233.65Z" fill="#5C525E"/>
<path d="M1969.15 1102.36C1923.27 1070.9 1889 1029.25 1866.42 977.407C1843.83 925.566 1832.58 870.004 1832.58 810.542C1832.58 751.081 1843.83 695.518 1866.42 643.678C1889 591.837 1923.19 550.187 1969.15 518.729C2015.03 487.27 2070.73 471.496 2136.18 471.496C2201.63 471.496 2257.34 487.27 2303.22 518.729C2349.09 550.187 2383.37 591.837 2405.95 643.678C2428.54 695.518 2439.78 751.169 2439.78 810.542C2439.78 869.915 2428.54 925.566 2405.95 977.407C2383.37 1029.25 2349.09 1070.9 2303.22 1102.36C2257.34 1133.81 2201.63 1149.59 2136.18 1149.59C2070.73 1149.59 2015.03 1133.9 1969.15 1102.36ZM2291.97 1001.16C2331.2 955.785 2350.87 892.512 2350.87 811.251C2350.87 729.99 2331.2 666.452 2291.97 620.637C2252.74 574.823 2200.84 551.96 2136.27 551.96C2071.71 551.96 2019.81 574.911 1980.58 620.637C1941.34 666.452 1921.77 729.99 1921.77 811.251C1921.77 892.512 1941.34 955.785 1980.58 1001.16C2019.81 1046.53 2071.71 1069.21 2136.27 1069.21C2200.84 1069.21 2252.74 1046.53 2291.97 1001.16Z" fill="#5C525E"/>
<path d="M2615.23 1136.92C2608.15 1128.5 2604.6 1116.8 2604.6 1101.65V519.438C2604.6 487.536 2618.33 471.585 2645.79 471.585C2659.07 471.585 2669.26 475.838 2676.34 484.168C2683.43 492.587 2686.97 504.373 2686.97 519.438V605.839C2717.97 565.075 2754.46 534.768 2796.61 514.83C2838.68 494.891 2887.57 484.877 2943.45 484.877H2976.67C2991.72 484.877 3003.41 488.245 3011.83 494.802C3020.24 501.448 3024.4 510.576 3024.4 522.096C3024.4 546.022 3008.46 557.986 2976.58 557.986H2940.71C2861.89 557.986 2799.89 579.963 2754.72 623.739C2709.55 667.604 2686.97 727.243 2686.97 802.567V1101.65C2686.97 1116.71 2683.43 1128.5 2676.34 1136.92C2669.26 1145.34 2659.07 1149.5 2645.79 1149.5C2632.5 1149.5 2622.32 1145.25 2615.23 1136.92Z" fill="#5C525E"/>
<path d="M3185.15 1136.92C3178.06 1128.5 3174.52 1116.8 3174.52 1101.65V519.438C3174.52 487.536 3188.25 471.585 3215.7 471.585C3228.99 471.585 3239.17 475.838 3246.26 484.168C3253.34 492.587 3256.88 504.373 3256.88 519.438V604.509C3281.68 562.86 3313.39 530.337 3351.91 506.854C3390.44 483.371 3431.36 471.585 3474.84 471.585C3518.33 471.585 3554.55 483.105 3586.43 506.145C3618.32 529.185 3642.23 561.53 3658.17 603.18C3689.17 560.644 3723.44 528.033 3761.08 505.525C3798.72 482.928 3837.87 471.585 3878.7 471.585C4017.75 471.585 4087.27 554.884 4087.27 721.483V1101.65C4087.27 1116.71 4083.73 1128.5 4076.64 1136.92C4069.56 1145.34 4059.37 1149.5 4046.09 1149.5C4018.63 1149.5 4004.9 1133.55 4004.9 1101.65V720.154C4004.9 659.008 3994.98 614.523 3974.97 586.609C3954.95 558.695 3921.12 544.693 3873.39 544.693C3831.76 544.693 3794.3 557.277 3761.08 582.532C3727.87 607.788 3701.48 643.944 3682.08 690.91V1101.65C3682.08 1116.71 3678.54 1128.5 3671.46 1136.92C3664.37 1145.34 3654.19 1149.5 3640.9 1149.5C3613.45 1149.5 3599.72 1133.55 3599.72 1101.65V738.763C3599.72 675.845 3588.38 627.815 3565.8 594.584C3543.22 561.353 3510.71 544.782 3468.2 544.782C3428.35 544.782 3392.21 555.682 3359.89 577.304C3327.56 599.015 3302.32 628.967 3284.16 666.984C3266.01 705.089 3256.88 748.068 3256.88 795.921V1101.65C3256.88 1116.71 3253.34 1128.5 3246.26 1136.92C3239.17 1145.34 3228.99 1149.5 3215.7 1149.5C3202.42 1149.5 3192.23 1145.25 3185.15 1136.92Z" fill="#5C525E"/>
<path d="M4299.74 306.138C4287.34 294.175 4281.14 279.819 4281.14 262.893C4281.14 245.967 4287.51 231.434 4300.36 219.028C4313.2 206.622 4327.99 200.419 4344.82 200.419C4361.64 200.419 4376.7 206.888 4389.98 219.737C4403.27 232.586 4409.91 246.942 4409.91 262.982C4409.91 279.021 4403.27 293.111 4389.98 305.518C4376.7 317.924 4361.64 324.127 4344.82 324.127C4327.1 324.127 4312.05 318.101 4299.65 306.227L4299.74 306.138ZM4314.35 1136.92C4307.26 1128.5 4303.72 1116.8 4303.72 1101.65V519.438C4303.72 487.536 4317.45 471.585 4344.9 471.585C4358.19 471.585 4368.37 475.838 4375.46 484.168C4382.54 492.587 4386.09 504.373 4386.09 519.438V1101.65C4386.09 1116.71 4382.54 1128.5 4375.46 1136.92C4368.37 1145.34 4358.19 1149.5 4344.9 1149.5C4331.62 1149.5 4321.43 1145.25 4314.35 1136.92Z" fill="#5C525E"/>
</g>
<defs>
<clipPath id="clip0_980_431">
<rect width="4410" height="1149" fill="white" transform="translate(0 0.5)"/>
</clipPath>
</defs>
</svg>
