<svg xmlns="http://www.w3.org/2000/svg" version="1.0" preserveAspectRatio="xMidYMid meet" viewBox="4.68 12 305.93 307.13">
<metadata>
Created by potrace 1.16, written by Peter Selinger 2001-2019
</metadata>
<g transform="translate(0.000000,364.000000) scale(0.100000,-0.100000)" fill="#000000" stroke="none">
<path d="M1403 3394 c-87 -69 -174 -138 -193 -152 -19 -15 -101 -79 -181 -142 -80 -63 -226 -178 -323 -255 -98 -77 -235 -185 -305 -240 -69 -55 -175 -138 -234 -184 -59 -47 -112 -91 -117 -100 -5 -9 -4 -24 2 -36 19 -35 138 -164 158 -170 22 -7 50 6 100 47 19 15 105 83 191 151 85 67 235 185 333 262 250 196 450 354 600 473 71 56 135 102 143 102 9 0 82 -53 163 -117 81 -65 228 -181 326 -258 167 -132 265 -209 634 -500 209 -165 213 -167 242 -160 21 5 137 128 161 171 13 23 -14 55 -110 130 -48 37 -145 113 -214 169 -70 55 -193 152 -273 215 -81 63 -230 180 -331 260 -100 80 -249 197 -330 260 -81 63 -164 129 -184 146 -38 33 -73 54 -90 54 -5 0 -81 -57 -168 -126z"/>
<path d="M1544 2715 c-9 -14 -20 -59 -25 -100 -5 -41 -14 -110 -19 -152 -6 -43 -15 -114 -20 -158 -6 -44 -15 -114 -20 -155 -5 -41 -14 -111 -20 -155 -5 -44 -14 -115 -20 -157 -5 -43 -15 -113 -20 -155 -6 -43 -14 -114 -19 -158 -12 -99 -22 -145 -30 -145 -8 0 -18 36 -71 255 -62 255 -61 255 -82 266 -29 16 -66 -14 -93 -74 -37 -85 -50 -92 -170 -92 -107 0 -135 -9 -135 -46 0 -31 33 -39 157 -39 143 0 159 4 175 41 7 16 18 29 25 29 12 0 14 -4 31 -80 6 -25 25 -103 42 -175 17 -71 40 -168 51 -215 42 -181 54 -210 89 -210 26 0 41 32 51 109 7 62 18 145 39 306 5 39 14 107 19 153 6 45 16 119 22 165 6 45 14 114 19 152 5 39 14 108 20 155 7 47 15 114 18 149 4 38 12 66 19 69 16 5 18 -2 33 -108 6 -47 15 -107 20 -135 8 -47 13 -77 40 -250 6 -38 15 -95 20 -125 5 -30 14 -89 20 -130 37 -232 46 -259 88 -246 26 9 37 34 118 276 38 113 73 208 78 212 17 12 26 -2 26 -41 0 -57 18 -66 153 -79 145 -14 188 -2 172 47 -7 24 -73 41 -158 41 -40 0 -68 5 -74 13 -11 13 -33 169 -33 233 0 27 -7 48 -20 62 -51 54 -64 28 -217 -430 -14 -43 -29 -78 -33 -78 -7 0 -21 61 -40 185 -6 39 -15 95 -20 125 -5 30 -14 87 -20 125 -16 99 -30 191 -40 255 -5 30 -14 87 -20 125 -6 39 -15 95 -20 125 -5 30 -14 89 -21 130 -17 105 -50 138 -85 85z"/>
<path d="M365 1983 c-45 -13 -44 1 -45 -770 0 -652 2 -733 16 -747 8 -9 21 -16 27 -16 7 -1 556 -1 1221 -1 1105 -1 1210 0 1225 15 15 15 16 83 13 759 -3 452 -8 746 -13 752 -6 6 -65 10 -135 10 -113 0 -127 -2 -140 -19 -12 -17 -14 -118 -14 -622 0 -540 -2 -602 -16 -608 -23 -9 -1847 -7 -1861 2 -10 6 -13 151 -15 614 -2 478 -6 610 -16 620 -13 13 -208 22 -247 11z"/>
</g>
</svg>