<?xml version="1.0" standalone="no"?>
<!DOCTYPE svg PUBLIC "-//W3C//DTD SVG 20010904//EN"
 "http://www.w3.org/TR/2001/REC-SVG-20010904/DTD/svg10.dtd">
<svg version="1.0" xmlns="http://www.w3.org/2000/svg"
 width="614.000000pt" height="614.000000pt" viewBox="0 0 614.000000 614.000000"
 preserveAspectRatio="xMidYMid meet">
<metadata>
Created by potrace 1.14, written by Peter Selinger 2001-2017
</metadata>
<g transform="translate(0.000000,614.000000) scale(0.100000,-0.100000)"
fill="#000000" stroke="none">
<path d="M3000 6101 c-30 -22 -59 -44 -65 -48 -5 -5 -48 -38 -95 -73 -47 -36
-87 -67 -90 -70 -3 -3 -36 -30 -75 -60 -38 -30 -72 -57 -75 -60 -3 -3 -66 -53
-140 -110 -115 -89 -165 -128 -260 -204 -8 -6 -62 -48 -120 -93 -82 -64 -752
-592 -820 -646 -8 -7 -47 -37 -85 -67 -39 -30 -72 -57 -75 -60 -3 -3 -21 -17
-40 -30 -19 -13 -42 -32 -51 -42 -9 -10 -21 -18 -27 -18 -6 0 -12 -3 -14 -8
-3 -6 -43 -39 -188 -153 -14 -11 -36 -29 -50 -40 -14 -11 -88 -70 -165 -130
-77 -61 -150 -119 -163 -130 -12 -10 -26 -19 -31 -19 -5 0 -11 -3 -13 -8 -2
-4 -34 -32 -73 -62 -116 -91 -255 -208 -268 -225 -16 -20 2 -75 43 -131 23
-31 93 -108 155 -171 l114 -116 43 5 c55 6 104 40 392 273 34 28 75 59 90 70
15 11 46 37 69 57 23 21 45 38 48 38 3 0 15 8 26 18 11 9 35 28 53 42 18 14
40 32 50 40 10 8 32 26 50 40 28 22 452 354 551 432 19 15 72 57 119 94 47 36
101 79 120 94 19 15 64 51 100 79 79 61 55 43 230 181 80 62 150 119 157 124
34 30 43 36 52 36 5 0 11 4 13 9 2 5 62 55 133 111 72 55 139 109 150 118 50
41 185 142 236 176 54 36 74 38 104 14 6 -5 53 -39 105 -77 52 -38 100 -74
105 -78 6 -5 42 -34 81 -64 39 -29 88 -68 110 -86 21 -18 100 -80 174 -138 74
-59 144 -114 155 -123 11 -10 72 -58 135 -107 127 -99 135 -105 153 -120 7 -6
44 -35 82 -65 39 -30 72 -58 73 -62 2 -5 8 -8 13 -8 5 0 20 -9 32 -20 12 -11
42 -36 67 -56 25 -19 52 -41 60 -47 8 -7 89 -70 180 -141 91 -72 179 -141 196
-155 17 -14 44 -36 60 -48 16 -12 79 -62 140 -110 61 -48 126 -100 145 -115
19 -14 93 -73 165 -130 72 -56 146 -114 164 -128 114 -86 146 -110 155 -117
29 -23 71 -46 96 -53 23 -7 35 -3 66 19 58 43 179 168 243 251 19 25 38 47 41
50 4 3 11 18 14 33 13 52 -45 114 -278 294 -102 80 -174 136 -251 199 -16 13
-43 34 -60 46 -16 13 -44 34 -60 49 -17 14 -73 58 -125 99 -52 40 -102 79
-110 87 -9 7 -106 83 -216 169 -110 85 -216 169 -235 184 -19 16 -48 39 -65
52 -38 29 -23 17 -210 164 -168 133 -173 136 -300 235 -44 34 -88 69 -97 78
-10 9 -28 24 -40 33 -13 9 -36 28 -53 41 -16 13 -129 101 -250 196 -277 216
-260 203 -443 349 -251 201 -252 201 -332 143z"/>
<path d="M3025 4553 c-33 -35 -57 -115 -71 -228 -3 -27 -7 -61 -9 -75 -2 -14
-7 -54 -10 -90 -4 -36 -9 -72 -10 -82 -2 -9 -6 -38 -10 -65 -4 -26 -8 -59 -10
-73 -2 -14 -7 -52 -11 -85 -3 -33 -8 -69 -11 -80 -2 -11 -6 -42 -8 -70 -3 -27
-7 -63 -9 -80 -2 -16 -7 -52 -10 -80 -4 -27 -8 -66 -11 -85 -2 -19 -7 -57 -11
-85 -3 -27 -7 -59 -9 -70 -1 -11 -6 -47 -10 -80 -3 -33 -8 -71 -11 -85 -6 -35
-12 -86 -19 -145 -2 -27 -6 -59 -9 -70 -2 -11 -7 -46 -11 -79 -3 -32 -8 -68
-10 -80 -2 -11 -6 -48 -10 -81 -3 -33 -8 -73 -10 -90 -3 -16 -7 -48 -10 -70
-3 -22 -8 -58 -11 -80 -4 -22 -7 -56 -9 -75 -2 -19 -5 -51 -8 -70 -3 -19 -8
-60 -12 -90 -10 -103 -16 -145 -25 -195 -5 -27 -12 -65 -15 -84 -3 -19 -11
-43 -17 -55 -11 -20 -12 -20 -25 12 -12 30 -81 287 -87 322 -1 8 -7 33 -14 55
-6 22 -14 52 -17 68 -3 15 -7 39 -10 55 -3 15 -9 36 -12 47 -8 23 -10 31 -17
63 -3 13 -7 31 -10 40 -3 9 -7 28 -10 42 -14 73 -61 239 -79 282 -11 25 -24
39 -41 44 -65 16 -113 -25 -180 -157 -58 -112 -87 -146 -141 -161 -38 -11 -66
-13 -269 -18 -121 -4 -164 -16 -186 -52 -22 -36 -16 -64 18 -86 36 -24 36 -24
288 -26 282 -3 302 1 348 82 51 88 68 73 106 -98 12 -52 26 -106 30 -120 5
-14 14 -52 21 -85 7 -33 14 -64 15 -70 2 -5 5 -19 7 -30 3 -11 10 -38 15 -60
6 -22 13 -51 16 -65 6 -37 55 -240 66 -275 5 -16 12 -46 15 -65 3 -19 20 -87
36 -150 16 -63 32 -122 34 -130 2 -8 4 -17 5 -20 1 -3 2 -7 2 -11 0 -3 11 -29
26 -59 22 -44 33 -55 61 -62 48 -13 75 14 96 92 0 3 4 14 8 25 6 19 10 49 22
155 5 44 10 77 20 142 3 18 7 53 10 78 3 25 7 56 8 70 2 14 8 54 12 90 4 36 9
73 10 82 2 9 7 48 10 85 4 37 9 70 10 73 2 3 6 34 10 70 3 36 9 79 11 95 3 17
7 46 9 65 7 64 16 135 20 160 3 14 7 48 11 75 3 28 8 59 10 70 2 11 6 45 9 75
3 30 7 66 9 80 2 14 7 50 10 80 8 63 11 87 20 150 3 25 8 65 11 90 2 25 6 54
9 65 2 11 7 47 10 80 4 33 9 71 11 85 6 32 13 89 20 165 4 33 9 74 12 90 2 17
6 42 8 57 5 34 22 68 35 68 14 0 27 -30 35 -80 4 -25 9 -52 10 -60 2 -8 6 -37
10 -65 4 -27 9 -63 11 -80 3 -16 7 -43 9 -60 2 -16 13 -85 24 -151 11 -67 23
-146 27 -175 3 -30 8 -57 10 -61 2 -3 7 -28 10 -55 3 -26 7 -55 9 -63 2 -8 7
-37 10 -65 4 -27 8 -57 10 -65 3 -8 9 -44 14 -80 6 -36 12 -76 15 -90 2 -14 7
-45 10 -70 6 -43 9 -66 21 -135 3 -16 10 -59 15 -95 19 -121 21 -135 41 -250
47 -268 74 -320 153 -282 39 19 76 103 175 397 45 132 84 247 88 255 3 8 7 22
9 30 11 50 104 276 118 284 24 16 37 -5 41 -68 7 -116 49 -145 230 -162 22 -2
67 -7 100 -10 110 -13 247 -8 288 9 37 16 38 18 35 59 -3 40 -6 45 -49 66 -25
12 -63 25 -85 28 -73 9 -139 15 -209 18 -111 5 -122 10 -134 64 -14 58 -17 73
-26 142 -4 30 -9 64 -11 75 -2 11 -6 48 -9 83 -2 35 -7 67 -10 72 -3 5 -1 11
5 15 6 4 8 10 5 15 -3 4 -7 27 -10 50 -9 66 -39 114 -84 131 -19 8 -29 5 -48
-13 -38 -36 -110 -203 -198 -463 -10 -27 -53 -155 -97 -284 -43 -129 -86 -248
-95 -264 l-15 -31 -13 30 c-16 39 -35 139 -71 364 -9 58 -18 114 -19 125 -2
11 -7 40 -10 65 -4 25 -13 78 -21 119 -7 41 -12 77 -10 79 3 2 1 14 -3 26 -5
11 -12 46 -15 77 -4 31 -9 67 -12 80 -7 34 -23 128 -28 169 -3 19 -7 49 -10
65 -3 17 -8 50 -11 75 -3 25 -10 68 -15 95 -5 28 -12 68 -15 89 -3 21 -7 48
-10 60 -2 12 -6 39 -9 61 -6 49 -16 112 -22 145 -3 14 -7 39 -10 55 -3 17 -9
55 -14 85 -5 30 -12 73 -15 95 -2 22 -7 51 -10 65 -4 23 -15 87 -20 120 -1 8
-6 33 -11 55 -4 22 -8 42 -9 45 -2 19 -32 79 -48 98 -27 29 -51 28 -82 -5z"/>
<path d="M665 3070 c-69 -15 -79 -29 -90 -125 -12 -105 -18 -547 -17 -1480 0
-1059 5 -1364 21 -1408 23 -61 -172 -57 2456 -53 1320 2 2414 6 2430 9 17 3
38 5 47 6 27 2 39 35 45 124 12 170 2 2303 -13 2722 -7 204 -3 189 -49 196
-22 4 -137 6 -256 6 -279 -2 -267 7 -273 -203 -2 -56 -6 -106 -10 -113 -4 -6
-4 -11 1 -11 4 0 7 -24 6 -52 -2 -29 -5 -496 -7 -1038 -2 -542 -7 -998 -11
-1015 -13 -66 -7 -63 -123 -65 -156 -4 -3019 -4 -3332 0 -146 2 -272 7 -281
11 -24 12 -27 78 -34 989 -9 1163 -15 1454 -34 1473 -17 17 -122 28 -301 31
-80 1 -158 0 -175 -4z"/>
</g>
</svg>
